# xmcd
#
# Track frame offsets:
# 150
# 19908
# 44040
# 71352
# 96438
# 127476
# 166455
# 183054
# 204822
# 222369
# 250044
#
# Disc length: 4003 seconds
#
# Revision: 0
# Processed by: cddbd v1.5.1PL2 Copyright (c) Steve Scherf et al.
# Submitted via: Audion 3.0.2 (http://www.panic.com/audion/)
#
DISCID=a00fa10b
DTITLE=Coluche - Ses plus grands succes
DYEAR=1900
DGENRE=
TTITLE0=Le schmilblick
TTITLE1=Tel pere, Tel fils
TTITLE2=Si j'ai bien tout lu Freud
TTITLE3=On n'a pas eu de bol
TTITLE4=J'ai pas dit ca sur les sportifs
TTITLE5=L'etudiant
TTITLE6=Le viol
TTITLE7=L'auto stoppeur
TTITLE8=La bagarre
TTITLE9=Les vacances
TTITLE10=La publicite
EXTD=
EXTT0=
EXTT1=
EXTT2=
EXTT3=
EXTT4=
EXTT5=
EXTT6=
EXTT7=
EXTT8=
EXTT9=
EXTT10=
PLAYORDER=
